<svg width="1024" height="1256" viewBox="0 0 1024 1256" fill="none" xmlns="http://www.w3.org/2000/svg">
<path d="M-801.598 1157.95C-805.544 1134.68 -792.123 792.905 -667.782 509.924C-556.168 256.266 -296.617 111.698 7.16096 294.01C332.647 489.404 613.4 509.053 839.781 452.055C1063.2 395.545 1211.77 225.274 1278.5 116.699C1423.32 -117.932 1637.25 27.199 1562.1 335.907C1526.65 479.51 1433.18 519.66 1271.21 534.56C1101.91 550.135 851.775 517.074 504.835 584.45C170.244 649.682 -206.281 806.345 -418.006 1005.76C-643.334 1218.16 -768.565 1361 -801.598 1157.95Z" fill="url(#paint0_linear_2058_1617)"/>
<defs>
<linearGradient id="paint0_linear_2058_1617" x1="1454" y1="973.32" x2="-750.332" y2="290.04" gradientUnits="userSpaceOnUse">
<stop stop-color="#5D50C6"/>
<stop offset="1" stop-color="#F85E9F"/>
</linearGradient>
</defs>
</svg>
