<svg width="1440" height="1244" viewBox="0 0 1440 1244" fill="none" xmlns="http://www.w3.org/2000/svg">
<path d="M-622.741 1146.83C-626.711 1123.8 -613.134 785.469 -487.843 505.318C-375.377 254.198 -113.919 111.042 192.028 291.465C519.839 484.834 802.624 504.237 1030.65 447.775C1255.7 391.797 1405.38 223.216 1472.61 115.724C1618.52 -116.568 1833.97 27.0644 1758.23 332.674C1722.5 474.836 1628.34 514.597 1465.2 529.375C1294.66 544.822 1042.72 512.137 693.258 578.893C356.232 643.525 -23.0494 798.674 -236.344 996.113C-463.34 1206.41 -589.504 1347.83 -622.741 1146.83Z" fill="url(#paint0_linear_2059_2583)"/>
<defs>
<linearGradient id="paint0_linear_2059_2583" x1="1649.24" y1="963.683" x2="-563.902" y2="265.318" gradientUnits="userSpaceOnUse">
<stop stop-color="#5D50C6"/>
<stop offset="1" stop-color="#F85E9F"/>
</linearGradient>
</defs>
</svg>
