<!-- Generated by IcoMoon.io -->
<svg version="1.1" xmlns="http://www.w3.org/2000/svg" width="40" height="40" viewBox="0 0 40 40" fill="#5D50C6">
<path d="M39.635 32.135c-0-0-0-0-0-0l-12.135-12.135 12.135-12.135c0-0 0-0 0-0 0.131-0.131 0.225-0.283 0.286-0.446 0.166-0.444 0.071-0.964-0.286-1.321l-5.732-5.732c-0.357-0.357-0.877-0.452-1.321-0.286-0.163 0.061-0.315 0.155-0.446 0.286 0 0-0 0-0 0l-12.135 12.135-12.135-12.135c-0-0-0-0-0-0-0.131-0.131-0.283-0.225-0.446-0.286-0.445-0.166-0.964-0.071-1.321 0.286l-5.732 5.732c-0.357 0.357-0.452 0.877-0.286 1.321 0.061 0.162 0.155 0.315 0.286 0.446 0 0 0 0 0 0l12.135 12.135-12.135 12.135c-0 0-0 0-0 0-0.131 0.131-0.225 0.283-0.286 0.446-0.166 0.444-0.071 0.964 0.286 1.321l5.732 5.732c0.357 0.357 0.877 0.452 1.321 0.286 0.162-0.061 0.315-0.155 0.446-0.286 0-0 0-0 0-0l12.135-12.135 12.135 12.135c0 0 0 0 0 0 0.131 0.131 0.283 0.225 0.446 0.286 0.444 0.166 0.964 0.071 1.321-0.286l5.732-5.732c0.357-0.357 0.452-0.877 0.286-1.321-0.061-0.163-0.155-0.315-0.286-0.446z"></path>
</svg>
