<svg width="32" height="32" viewBox="0 0 32 32" fill="none" xmlns="http://www.w3.org/2000/svg">
<path d="M16 32C24.8366 32 32 24.8366 32 16C32 7.16344 24.8366 0 16 0C7.16344 0 0 7.16344 0 16C0 24.8366 7.16344 32 16 32Z" fill="#5D50C6"/>
<path d="M25.8005 11.4986C25.1149 11.8027 24.3773 12.0083 23.6038 12.1002C24.3935 11.627 24.9996 10.8783 25.2857 9.98471C24.5467 10.4231 23.7279 10.7411 22.8571 10.9125C22.1595 10.1695 21.1655 9.7052 20.0648 9.7052C17.9531 9.7052 16.2404 11.4179 16.2404 13.5297C16.2404 13.8294 16.2743 14.1212 16.3399 14.4013C13.1615 14.2418 10.3433 12.7194 8.45687 10.4048C8.12773 10.9696 7.93892 11.627 7.93892 12.3278C7.93892 13.6543 8.61459 14.8254 9.64022 15.511C9.01361 15.4914 8.4235 15.3194 7.90811 15.0322C7.90783 15.0484 7.90783 15.0647 7.90783 15.0807C7.90783 16.9337 9.22666 18.4793 10.9759 18.8304C10.6553 18.9182 10.3168 18.9647 9.96851 18.9647C9.72151 18.9647 9.48222 18.941 9.24891 18.8965C9.73549 20.4156 11.1476 21.5214 12.8215 21.5525C11.5124 22.5784 9.86355 23.1896 8.07126 23.1896C7.76322 23.1896 7.45804 23.1716 7.15942 23.136C8.85103 24.2215 10.8618 24.8544 13.0215 24.8544C20.056 24.8544 23.903 19.0269 23.903 13.9726C23.903 13.8069 23.8993 13.6417 23.8919 13.478C24.6397 12.939 25.288 12.2656 25.8005 11.4986Z" fill="#F1F2F2"/>
</svg>
